<svg xmlns="http://www.w3.org/2000/svg" width="70" height="70" viewBox="0 0 70 70" style="width: 100%; height: 100%;"><desc>Made with illustrio</desc>
  
<g class="base"><g fill="none" fill-rule="evenodd" stroke="none" class="main-stroke">
    
    <path fill="none" d="M2,0 L4,0 L4,32 L2,32 C0.895,32 0,31.105 0,30 L0,2 C0,0.895 0.895,0 2,0 Z M32,2 L32,30 C32,31.105 31.105,32 30,32 L6,32 L6,0 L30,0 C31.105,0 32,0.895 32,2 Z M26.016,22 C25.973,20 25.211,18.57 20.161,16.41 C21.273,15.227 22,13.773 22,12 C22,9.234 20.219,8 18.008,8 C15.797,8 14,9.234 14,12 C14,13.773 14.742,15.195 15.855,16.379 C10.805,18.539 10.043,20 10.004,22 L10,22 L10,24 L26,24 L26,22 L26.016,22 Z" transform="translate(19 19)" stroke="none" class="main-stroke"></path>
  </g></g><style>
          .main-fill {fill: #BEA2A1;}
          .main-stroke {stroke: #BEA2A1;}
          .secondary-fill {fill: #ffffff;}
          .secondary-stroke {stroke: #ffffff;}

          .main-fill--darken {fill: #9f7574;}
          .main-stroke--darken {stroke: #9f7574;}
          .secondary-fill--darken {fill: #d9d9d9;}
          .secondary-stroke--darken {stroke: #d9d9d9;}

          .main-fill--darkener {fill: #845d5b;}
          .main-stroke--darkener {stroke: #845d5b;}
          .secondary-fill--darkener {fill: #bfbfbf;}
          .secondary-stroke--darkener {stroke: #bfbfbf;}
        </style></svg>