<svg xmlns="http://www.w3.org/2000/svg" width="70" height="70" viewBox="0 0 70 70" style="width: 100%; height: 100%;"><desc>Made with illustrio</desc>
  
<g class="base"><g fill="none" fill-rule="evenodd" stroke="none" class="main-stroke">
    
    
    <path fill="none" d="M13.1764706,0.149132941 C8.85648029,0.149132941 5.35294118,3.65267 5.35294118,7.97266235 L5.35294118,9.20795647 L2.05882353,9.20795647 L0,35.5608976 L26.3529412,35.5608976 L24.2941176,9.20795647 L21,9.20795647 L21,7.97266235 C21,3.65267 17.4964609,0.149132941 13.1764706,0.149132941 Z M13.1764706,1.79619176 C16.6124803,1.79619176 19.3529412,4.53665471 19.3529412,7.97266235 L19.3529412,9.20795647 L7,9.20795647 L7,7.97266235 C7,4.53665471 9.74046088,1.79619176 13.1764706,1.79619176 Z M6.17647059,12.5020741 C7.08611606,12.5020741 7.82352941,13.2394875 7.82352941,14.1491329 C7.82352941,15.0587784 7.08611606,15.7961918 6.17647059,15.7961918 C5.26682512,15.7961918 4.52941176,15.0587784 4.52941176,14.1491329 C4.52941176,13.2394875 5.26682512,12.5020741 6.17647059,12.5020741 Z M20.1764706,12.5020741 C21.0861161,12.5020741 21.8235294,13.2394875 21.8235294,14.1491329 C21.8235294,15.0587784 21.0861161,15.7961918 20.1764706,15.7961918 C19.2668251,15.7961918 18.5294118,15.0587784 18.5294118,14.1491329 C18.5294118,13.2394875 19.2668251,12.5020741 20.1764706,12.5020741 Z" transform="translate(21.824 17.145)" stroke="none" class="main-stroke"></path>
  </g></g><style>
          .main-fill {fill: #000000;}
          .main-stroke {stroke: #000000;}
          .secondary-fill {fill: #fcfff9;}
          .secondary-stroke {stroke: #fcfff9;}

          .main-fill--darken {fill: #000000;}
          .main-stroke--darken {stroke: #000000;}
          .secondary-fill--darken {fill: #d6ffac;}
          .secondary-stroke--darken {stroke: #d6ffac;}

          .main-fill--darkener {fill: #000000;}
          .main-stroke--darkener {stroke: #000000;}
          .secondary-fill--darkener {fill: #bcff79;}
          .secondary-stroke--darkener {stroke: #bcff79;}
        </style></svg>