<svg xmlns="http://www.w3.org/2000/svg" width="70" height="70" viewBox="0 0 70 70" style="width: 100%; height: 100%;"><desc>Made with illustrio</desc>
  
<g class="base"><g fill="none" fill-rule="evenodd" stroke="none" class="main-stroke">
    
    
    <path fill="none" d="M3.29411765,0.149132941 C1.46917688,0.149132941 0,1.61830982 0,3.44325059 L0,3.85501529 L22.2352941,3.85501529 L22.2352941,3.44325059 C22.2352941,1.61830982 20.7661172,0.149132941 18.9411765,0.149132941 L3.29411765,0.149132941 Z M0,5.50207412 L0,25.6785447 L22.2352941,25.6785447 L22.2352941,5.50207412 L0,5.50207412 Z M11.1176471,7.14913294 C11.5058625,7.14913294 11.9411765,7.505386 11.9411765,7.97266235 L11.9411765,8.02413294 C12.8075459,8.11013535 13.6474298,8.33069176 14.3731618,8.77045647 C15.3268875,9.34837647 16.0588235,10.3876253 16.0588235,11.6785447 C16.0649753,12.1136256 15.6704186,12.5138028 15.2352941,12.5138028 C14.8001696,12.5138028 14.4056117,12.1136256 14.4117647,11.6785447 C14.4117647,10.9445329 14.1130883,10.5300547 13.5238971,10.17303 C13.1144193,9.92490388 12.5523193,9.76497859 11.9411765,9.68405941 L11.9411765,14.6252359 C14.2746524,14.9597086 16.0588235,16.6729446 16.0588235,18.6785447 C16.0588235,20.0452741 15.3742589,21.1596535 14.4246324,21.8311182 C13.6985553,22.3445464 12.832316,22.6354615 11.9411765,22.7447212 L11.9411765,22.7961918 C11.9473282,23.2312726 11.5058625,23.6197212 11.1176471,23.6197212 C10.7294316,23.6197212 10.2879646,23.2312726 10.2941176,22.7961918 L10.2941176,22.7575888 C9.42774824,22.6680263 8.58786476,22.4253198 7.86213235,21.98553 C6.90840624,21.4076182 6.17647059,20.3812329 6.17647059,19.0903094 C6.17031882,18.6552285 6.56487547,18.2550513 7,18.2550513 C7.43512453,18.2550513 7.82968241,18.6552285 7.82352941,19.0903094 C7.82352941,19.8243212 8.12220624,20.2259153 8.71139706,20.5829565 C9.12077435,20.8310332 9.68314941,21.0000638 10.2941176,21.0847947 L10.2941176,16.1564859 C7.96064294,15.8220131 6.17647059,14.0959095 6.17647059,12.0903094 C6.17647059,10.7235882 6.86103476,9.59634118 7.81066176,8.92486824 C8.53665647,8.41152365 9.40308724,8.14274918 10.2941176,8.03700059 L10.2941176,7.97266235 C10.2941176,7.56556376 10.7294316,7.14913294 11.1176471,7.14913294 Z M10.2941176,9.69692706 C9.70952418,9.79570365 9.16807459,9.98945212 8.76286765,10.2759712 C8.17137835,10.6942088 7.82352941,11.2276459 7.82352941,12.0903094 C7.82352941,12.9858071 8.79606329,14.1598611 10.2941176,14.4836918 L10.2941176,9.69692706 Z M11.9411765,16.29803 L11.9411765,21.0847947 C12.5257695,20.9822122 13.0672187,20.7665286 13.4724265,20.4800153 C14.0639166,20.0617859 14.4117647,19.5411918 14.4117647,18.6785447 C14.4117647,17.7830434 13.43923,16.6218599 11.9411765,16.29803 Z M0,27.3256035 L0,31.4432506 C0,33.2681914 1.46917688,34.7373682 3.29411765,34.7373682 L18.9411765,34.7373682 C20.7661172,34.7373682 22.2352941,33.2681914 22.2352941,31.4432506 L22.2352941,27.3256035 L0,27.3256035 Z M8.53125,29.7961918 C8.54411353,29.7958904 8.55698941,29.7958904 8.56985294,29.7961918 C8.59556765,29.7949976 8.62134247,29.7949976 8.64705882,29.7961918 L13.5882353,29.7961918 C14.0233162,29.79004 14.4234934,30.1845966 14.4234934,30.6197212 C14.4234934,31.0548457 14.0233162,31.4494036 13.5882353,31.4432506 L8.64705882,31.4432506 C8.21585965,31.4735692 7.79594406,31.1088244 7.76562541,30.6776256 C7.73530676,30.2464264 8.10005082,29.8265104 8.53125,29.7961918 Z" transform="translate(23.882 17.557)" stroke="none" class="main-stroke"></path>
  </g></g><style>
          .main-fill {fill: #BEA2A1;}
          .main-stroke {stroke: #BEA2A1;}
          .secondary-fill {fill: #ffffff;}
          .secondary-stroke {stroke: #ffffff;}

          .main-fill--darken {fill: #9f7574;}
          .main-stroke--darken {stroke: #9f7574;}
          .secondary-fill--darken {fill: #d9d9d9;}
          .secondary-stroke--darken {stroke: #d9d9d9;}

          .main-fill--darkener {fill: #845d5b;}
          .main-stroke--darkener {stroke: #845d5b;}
          .secondary-fill--darkener {fill: #bfbfbf;}
          .secondary-stroke--darkener {stroke: #bfbfbf;}
        </style></svg>