<svg xmlns="http://www.w3.org/2000/svg" width="70" height="70" viewBox="0 0 70 70" style="width: 100%; height: 100%;"><desc>Made with illustrio</desc>
  
<g class="base"><g fill="none" fill-rule="evenodd" stroke="none" class="main-stroke">
    
    
    <path fill="none" d="M1.23529412,0.149128824 C0.550941794,0.149128824 0,0.70007 0,1.38442294 L0,4.67854059 C0,3.99418765 0.550941794,3.44324647 1.23529412,3.44324647 L28.8235294,3.44324647 L28.8235294,1.38442294 C28.8235294,0.70007 28.2725878,0.149128824 27.5882353,0.149128824 L1.23529412,0.149128824 Z M1.23529412,5.09030529 C0.550941794,5.09030529 0,5.64124647 0,6.32559941 L0,26.9138471 C0,27.5982 0.550941794,28.1491412 1.23529412,28.1491412 L30.0588235,28.1491412 C30.7431761,28.1491412 31.2941176,27.5982 31.2941176,26.9138471 L31.2941176,21.9726706 L22.2352941,21.9726706 C18.842019,21.9726706 16.0588235,19.1894706 16.0588235,15.7962 C16.0588235,12.4029171 18.842019,9.61971706 22.2352941,9.61971706 L31.2941176,9.61971706 L31.2941176,6.32559941 C31.2941176,5.64124647 30.7431761,5.09030529 30.0588235,5.09030529 L1.23529412,5.09030529 Z M22.2352941,11.2667759 C19.726,11.2667759 17.7058824,13.2869059 17.7058824,15.7962 C17.7058824,18.3054941 19.726,20.3256118 22.2352941,20.3256118 L33.3529412,20.3256118 C34.0372937,20.3256118 34.5882353,19.7746706 34.5882353,19.0903176 L34.5882353,12.50207 C34.5882353,11.8177171 34.0372937,11.2667759 33.3529412,11.2667759 L22.2352941,11.2667759 Z M22.2352941,14.1491412 C23.1449396,14.1491412 23.8823529,14.8865294 23.8823529,15.7962 C23.8823529,16.7058294 23.1449396,17.4432588 22.2352941,17.4432588 C21.3256486,17.4432588 20.5882353,16.7058294 20.5882353,15.7962 C20.5882353,14.8865294 21.3256486,14.1491412 22.2352941,14.1491412 Z" transform="translate(17.706 20.85)" stroke="none" class="main-stroke"></path>
  </g></g><style>
          .main-fill {fill: #BEA2A1;}
          .main-stroke {stroke: #BEA2A1;}
          .secondary-fill {fill: #ffffff;}
          .secondary-stroke {stroke: #ffffff;}

          .main-fill--darken {fill: #9f7574;}
          .main-stroke--darken {stroke: #9f7574;}
          .secondary-fill--darken {fill: #d9d9d9;}
          .secondary-stroke--darken {stroke: #d9d9d9;}

          .main-fill--darkener {fill: #845d5b;}
          .main-stroke--darkener {stroke: #845d5b;}
          .secondary-fill--darkener {fill: #bfbfbf;}
          .secondary-stroke--darkener {stroke: #bfbfbf;}
        </style></svg>