<svg xmlns="http://www.w3.org/2000/svg" width="70" height="70" viewBox="0 0 70 70" style="width: 100%; height: 100%;"><desc>Made with illustrio</desc>
  
<g class="base"><g fill="none" fill-rule="evenodd" stroke="none" class="main-stroke">
    
    
  </g><g fill="none" transform="translate(19.09 24.182)" stroke="none" class="main-stroke">
      <rect width="6.364" height="3.818" x="11.455" y="6.364" fill="none" stroke="none" class="main-stroke"></rect>
      <path d="M31.1818182,0 L5.72727273,0 C5.376,0 5.09090909,0.285090909 5.09090909,0.636363636 L5.09090909,18.4545455 C5.09090909,19.5070909 4.23436364,20.3636364 3.18181818,20.3636364 C2.12927273,20.3636364 1.27272727,19.5070909 1.27272727,18.4545455 L1.27272727,1.90909091 C1.27272727,1.55781818 0.987636364,1.27272727 0.636363636,1.27272727 C0.285090909,1.27272727 0,1.55781818 0,1.90909091 L0,18.4545455 C0,20.209 1.42736364,21.6363636 3.18181818,21.6363636 L31.1818182,21.6363636 C31.5337273,21.6363636 31.8181818,21.3519091 31.8181818,21 L31.8181818,0.636363636 C31.8181818,0.285090909 31.5337273,0 31.1818182,0 L31.1818182,0 Z M10.1818182,5.72727273 C10.1818182,5.376 10.4669091,5.09090909 10.8181818,5.09090909 L18.4545455,5.09090909 C18.8064545,5.09090909 19.0909091,5.376 19.0909091,5.72727273 L19.0909091,10.8181818 C19.0909091,11.1694545 18.8064545,11.4545455 18.4545455,11.4545455 L10.8181818,11.4545455 C10.4669091,11.4545455 10.1818182,11.1694545 10.1818182,10.8181818 L10.1818182,5.72727273 L10.1818182,5.72727273 Z M26.0909091,16.5454545 L10.8181818,16.5454545 C10.4669091,16.5454545 10.1818182,16.261 10.1818182,15.9090909 C10.1818182,15.5571818 10.4669091,15.2727273 10.8181818,15.2727273 L26.0909091,15.2727273 C26.4428182,15.2727273 26.7272727,15.5571818 26.7272727,15.9090909 C26.7272727,16.261 26.4428182,16.5454545 26.0909091,16.5454545 L26.0909091,16.5454545 Z M26.0909091,11.4545455 L23.5454545,11.4545455 C23.1935455,11.4545455 22.9090909,11.1694545 22.9090909,10.8181818 C22.9090909,10.4669091 23.1935455,10.1818182 23.5454545,10.1818182 L26.0909091,10.1818182 C26.4428182,10.1818182 26.7272727,10.4669091 26.7272727,10.8181818 C26.7272727,11.1694545 26.4428182,11.4545455 26.0909091,11.4545455 L26.0909091,11.4545455 Z M26.0909091,6.36363636 L23.5454545,6.36363636 C23.1935455,6.36363636 22.9090909,6.07854545 22.9090909,5.72727273 C22.9090909,5.376 23.1935455,5.09090909 23.5454545,5.09090909 L26.0909091,5.09090909 C26.4428182,5.09090909 26.7272727,5.376 26.7272727,5.72727273 C26.7272727,6.07854545 26.4428182,6.36363636 26.0909091,6.36363636 L26.0909091,6.36363636 Z" fill="none" stroke="none" class="main-stroke"></path>
    </g></g><style>
          .main-fill {fill: #BEA2A1;}
          .main-stroke {stroke: #BEA2A1;}
          .secondary-fill {fill: #ffffff;}
          .secondary-stroke {stroke: #ffffff;}

          .main-fill--darken {fill: #9f7574;}
          .main-stroke--darken {stroke: #9f7574;}
          .secondary-fill--darken {fill: #d9d9d9;}
          .secondary-stroke--darken {stroke: #d9d9d9;}

          .main-fill--darkener {fill: #845d5b;}
          .main-stroke--darkener {stroke: #845d5b;}
          .secondary-fill--darkener {fill: #bfbfbf;}
          .secondary-stroke--darkener {stroke: #bfbfbf;}
        </style></svg>