<svg xmlns="http://www.w3.org/2000/svg" width="70" height="70" viewBox="0 0 70 70" style="width: 100%; height: 100%;"><desc>Made with illustrio</desc>
  
<g class="base"><g fill="none" fill-rule="evenodd" stroke="none" class="main-stroke">
    
    
  </g><g fill="none" transform="translate(21.636 18.455)" stroke="none" class="main-stroke">
      <path d="M22.9090909,28 L22.9090909,1.27272727 C22.9090909,0.570181818 22.3389091,0 21.6363636,0 L1.27272727,0 C0.570181818,0 0,0.570181818 0,1.27272727 L0,28 C0,28.7025455 0.570181818,29.2727273 1.27272727,29.2727273 L21.6363636,29.2727273 C22.3389091,29.2727273 22.9090909,28.7025455 22.9090909,28 L22.9090909,28 Z M17.8181818,24.8181818 L5.09090909,24.8181818 C4.73963636,24.8181818 4.45454545,24.5337273 4.45454545,24.1818182 C4.45454545,23.8299091 4.73963636,23.5454545 5.09090909,23.5454545 L17.8181818,23.5454545 C18.1700909,23.5454545 18.4545455,23.8299091 18.4545455,24.1818182 C18.4545455,24.5337273 18.1700909,24.8181818 17.8181818,24.8181818 L17.8181818,24.8181818 Z M17.8181818,21 L5.09090909,21 C4.73963636,21 4.45454545,20.7155455 4.45454545,20.3636364 C4.45454545,20.0117273 4.73963636,19.7272727 5.09090909,19.7272727 L17.8181818,19.7272727 C18.1700909,19.7272727 18.4545455,20.0117273 18.4545455,20.3636364 C18.4545455,20.7155455 18.1700909,21 17.8181818,21 L17.8181818,21 Z M17.8181818,17.1818182 L5.09090909,17.1818182 C4.73963636,17.1818182 4.45454545,16.8967273 4.45454545,16.5454545 C4.45454545,16.1941818 4.73963636,15.9090909 5.09090909,15.9090909 L17.8181818,15.9090909 C18.1700909,15.9090909 18.4545455,16.1941818 18.4545455,16.5454545 C18.4545455,16.8967273 18.1700909,17.1818182 17.8181818,17.1818182 L17.8181818,17.1818182 Z M17.8181818,13.3636364 L5.09090909,13.3636364 C4.73963636,13.3636364 4.45454545,13.0785455 4.45454545,12.7272727 C4.45454545,12.376 4.73963636,12.0909091 5.09090909,12.0909091 L17.8181818,12.0909091 C18.1700909,12.0909091 18.4545455,12.376 18.4545455,12.7272727 C18.4545455,13.0785455 18.1700909,13.3636364 17.8181818,13.3636364 L17.8181818,13.3636364 Z M17.8181818,9.54545455 L5.09090909,9.54545455 C4.73963636,9.54545455 4.45454545,9.26036364 4.45454545,8.90909091 C4.45454545,8.55781818 4.73963636,8.27272727 5.09090909,8.27272727 L17.8181818,8.27272727 C18.1700909,8.27272727 18.4545455,8.55781818 18.4545455,8.90909091 C18.4545455,9.26036364 18.1700909,9.54545455 17.8181818,9.54545455 L17.8181818,9.54545455 Z M17.8181818,5.72727273 L5.09090909,5.72727273 C4.73963636,5.72727273 4.45454545,5.44218182 4.45454545,5.09090909 C4.45454545,4.73963636 4.73963636,4.45454545 5.09090909,4.45454545 L17.8181818,4.45454545 C18.1700909,4.45454545 18.4545455,4.73963636 18.4545455,5.09090909 C18.4545455,5.44218182 18.1700909,5.72727273 17.8181818,5.72727273 L17.8181818,5.72727273 Z" fill="none" stroke="none" class="main-stroke"></path>
      <path d="M25.4545455,2.54545455 C24.752,2.54545455 24.1818182,3.11563636 24.1818182,3.81818182 L24.1818182,30.5454545 L3.81818182,30.5454545 C3.11563636,30.5454545 2.54545455,31.1156364 2.54545455,31.8181818 C2.54545455,32.5207273 3.11563636,33.0909091 3.81818182,33.0909091 L25.4545455,33.0909091 C26.1570909,33.0909091 26.7272727,32.5207273 26.7272727,31.8181818 L26.7272727,3.81818182 C26.7272727,3.11563636 26.1570909,2.54545455 25.4545455,2.54545455 L25.4545455,2.54545455 Z" fill="none" stroke="none" class="main-stroke"></path>
    </g></g><style>
          .main-fill {fill: #BEA2A1;}
          .main-stroke {stroke: #BEA2A1;}
          .secondary-fill {fill: #ffffff;}
          .secondary-stroke {stroke: #ffffff;}

          .main-fill--darken {fill: #9f7574;}
          .main-stroke--darken {stroke: #9f7574;}
          .secondary-fill--darken {fill: #d9d9d9;}
          .secondary-stroke--darken {stroke: #d9d9d9;}

          .main-fill--darkener {fill: #845d5b;}
          .main-stroke--darkener {stroke: #845d5b;}
          .secondary-fill--darkener {fill: #bfbfbf;}
          .secondary-stroke--darkener {stroke: #bfbfbf;}
        </style></svg>