<svg xmlns="http://www.w3.org/2000/svg" width="70" height="70" viewBox="0 0 70 70" style="width: 100%; height: 100%;"><desc>Made with illustrio</desc>
  
<g class="base"><g fill="none" fill-rule="evenodd" stroke="none" class="main-stroke">
    
    
  </g><g fill="none" transform="translate(18.455 18.455)" stroke="none" class="main-stroke">
      <path d="M31.8181818,12.7272727 L28.6796364,12.7272727 C28.4556364,12.0177273 28.1699091,11.3285455 27.8237273,10.6667273 L30.044,8.44581818 C30.541,7.94881818 30.541,7.14318182 30.044,6.64618182 L26.4440909,3.04627273 C25.9668182,2.569 25.1217273,2.569 24.6444545,3.04627273 L22.4235455,5.26718182 C21.7617273,4.921 21.0731818,4.63463636 20.3636364,4.41127273 L20.3636364,1.27272727 C20.3636364,0.570181818 19.7934545,0 19.0909091,0 L14,0 C13.2974545,0 12.7272727,0.570181818 12.7272727,1.27272727 L12.7272727,4.41127273 C12.0170909,4.63463636 11.3285455,4.92036364 10.6667273,5.26718182 L8.44645455,3.04690909 C7.94945455,2.54990909 7.14381818,2.54990909 6.64681818,3.04690909 L3.04690909,6.64618182 C2.80827273,6.88481818 2.674,7.20872727 2.674,7.54663636 C2.674,7.88390909 2.80763636,8.20781818 3.04690909,8.44645455 L5.26718182,10.6667273 C4.92036364,11.3291818 4.63463636,12.0183636 4.41127273,12.7279091 L1.27272727,12.7279091 C0.570181818,12.7279091 0,13.2980909 0,14.0006364 L0,19.0915455 C0,19.7940909 0.570181818,20.3642727 1.27272727,20.3642727 L4.41063636,20.3642727 C4.63463636,21.0744545 4.92036364,21.763 5.26718182,22.4248182 L3.04627273,24.6457273 C2.80763636,24.8843636 2.67336364,25.2082727 2.67336364,25.5455455 C2.67336364,25.8828182 2.80763636,26.2067273 3.04627273,26.4453636 L6.64618182,30.0446364 C7.14318182,30.5416364 7.94945455,30.5416364 8.44581818,30.0446364 L10.6667273,27.8243636 C11.3285455,28.1705455 12.0170909,28.4562727 12.7266364,28.6802727 L12.7266364,31.8181818 C12.7266364,32.5207273 13.2968182,33.0909091 13.9993636,33.0909091 L19.0902727,33.0909091 C19.7928182,33.0909091 20.363,32.5207273 20.363,31.8181818 L20.363,28.679 C21.0725455,28.455 21.7610909,28.1692727 22.4229091,27.8230909 L24.6444545,30.044 C25.1217273,30.5212727 25.9668182,30.5212727 26.4440909,30.044 L30.0433636,26.4440909 C30.5403636,25.9470909 30.5403636,25.1414545 30.0433636,24.6444545 L27.8224545,22.4235455 C28.1686364,21.7617273 28.4543636,21.0731818 28.6783636,20.3636364 L31.8181818,20.3636364 C32.5207273,20.3636364 33.0909091,19.7934545 33.0909091,19.0909091 L33.0909091,14 C33.0909091,13.2974545 32.5207273,12.7272727 31.8181818,12.7272727 L31.8181818,12.7272727 Z M16.5454545,24.1818182 C12.3346364,24.1818182 8.90909091,20.7556364 8.90909091,16.5454545 C8.90909091,12.3346364 12.3346364,8.90909091 16.5454545,8.90909091 C20.7562727,8.90909091 24.1818182,12.3346364 24.1818182,16.5454545 C24.1818182,20.7556364 20.7556364,24.1818182 16.5454545,24.1818182 L16.5454545,24.1818182 Z" fill="none" stroke="none" class="main-stroke"></path>
      <path d="M16.5454545,11.4539091 C13.7378182,11.4539091 11.4545455,13.7378182 11.4545455,16.5448182 C11.4545455,19.3518182 13.7384545,21.6357273 16.5454545,21.6357273 C19.3524545,21.6357273 21.6363636,19.3518182 21.6363636,16.5448182 C21.6363636,13.7378182 19.3524545,11.4539091 16.5454545,11.4539091 L16.5454545,11.4539091 Z" fill="none" stroke="none" class="main-stroke"></path>
    </g></g><style>
          .main-fill {fill: #BEA2A1;}
          .main-stroke {stroke: #BEA2A1;}
          .secondary-fill {fill: #ffffff;}
          .secondary-stroke {stroke: #ffffff;}

          .main-fill--darken {fill: #9f7574;}
          .main-stroke--darken {stroke: #9f7574;}
          .secondary-fill--darken {fill: #d9d9d9;}
          .secondary-stroke--darken {stroke: #d9d9d9;}

          .main-fill--darkener {fill: #845d5b;}
          .main-stroke--darkener {stroke: #845d5b;}
          .secondary-fill--darkener {fill: #bfbfbf;}
          .secondary-stroke--darkener {stroke: #bfbfbf;}
        </style></svg>