<svg xmlns="http://www.w3.org/2000/svg" width="70" height="70" viewBox="0 0 70 70" style="width: 100%; height: 100%;"><desc>Made with illustrio</desc>
  
<g class="base"><g fill="none" fill-rule="evenodd" stroke="none" class="main-fill">
    
    <path fill="none" d="M26.775,0 L2.975,0 C1.33875,0 0,1.33875 0,2.975 L0,26.775 C0,28.41125 1.33875,29.75 2.975,29.75 L26.775,29.75 C28.41125,29.75 29.75,28.41125 29.75,26.775 L29.75,2.975 C29.75,1.33875 28.41125,0 26.775,0 L26.775,0 Z M16.3625,21.1225 C15.1725,21.1225 13.9825,20.6763083 13.23875,19.7838083 L11.75125,24.5438083 L11.6025,24.8413083 L11.6025,24.8413083 C11.305,25.2875583 10.85875,25.5850583 10.26375,25.5850583 C9.37125,25.5850583 8.6275,24.8413083 8.6275,23.9488083 L8.6275,23.8000583 L8.6275,23.8000583 L8.77625,23.5025583 L11.45375,15.1725 C11.45375,15.1725 11.15625,14.28 11.15625,12.94125 C11.15625,10.4125 12.495,9.66875 13.685,9.66875 C14.72625,9.66875 15.7675,10.115 15.7675,11.6025 C15.7675,13.53625 14.42875,14.5775 14.42875,16.065 C14.42875,17.10625 15.32125,17.9986917 16.3625,17.9986917 C19.78375,17.9986917 21.1225,15.32125 21.1225,12.9411917 C21.1225,9.66869167 18.2963083,6.99119167 14.875,6.99119167 C11.45375,6.99119167 8.6275,9.66869167 8.6275,12.9411917 C8.6275,13.9824417 8.925,14.8749417 9.37125,15.7674417 C9.52,16.065 9.52,16.2136917 9.52,16.5111917 C9.52,17.4036917 8.925,17.9986917 8.0325,17.9986917 C7.4375,17.9986917 6.99125,17.7011917 6.69375,17.2549417 C5.95,15.9161917 5.50375,14.4286917 5.50375,12.7924417 C5.50375,7.88369167 9.66875,3.86744167 14.72625,3.86744167 C19.78375,3.86744167 23.94875,7.88369167 23.94875,12.7924417 C24.0975,16.9575 21.7175,21.1225 16.3625,21.1225 L16.3625,21.1225 Z" transform="translate(20.125 20.125)" stroke="none" class="main-fill"></path>
  </g></g><style>
          .main-fill {fill: #333333;}
          .main-stroke {stroke: #333333;}
          .secondary-fill {fill: #FFFFFF;}
          .secondary-stroke {stroke: #FFFFFF;}

          .main-fill--darken {fill: #0d0d0d;}
          .main-stroke--darken {stroke: #0d0d0d;}
          .secondary-fill--darken {fill: #d9d9d9;}
          .secondary-stroke--darken {stroke: #d9d9d9;}

          .main-fill--darkener {fill: #000000;}
          .main-stroke--darkener {stroke: #000000;}
          .secondary-fill--darkener {fill: #bfbfbf;}
          .secondary-stroke--darkener {stroke: #bfbfbf;}
        </style></svg>