<svg xmlns="http://www.w3.org/2000/svg" width="70" height="70" viewBox="0 0 70 70" style="width: 100%; height: 100%;"><desc>Made with illustrio</desc>
  
<g class="base"><g fill="none" fill-rule="evenodd" stroke="none" class="main-fill">
    
    <path fill="none" d="M24.732925,8.56403333 C26.2925833,8.43155833 27.3548917,7.72140833 27.777925,6.754475 C27.2084167,7.09846667 25.4465167,7.479675 24.48425,7.120575 C24.4330917,6.89278333 24.380825,6.67543333 24.3261667,6.482525 C23.5893,3.771075 21.0580417,1.58264167 18.4128583,1.85231667 C18.6290417,1.76866667 18.8463333,1.679125 19.06485,1.60941667 C19.3461333,1.50949167 21.0615417,1.22820833 20.8035333,0.625041667 C20.5664667,0.09625 18.4732917,1.02369167 18.0851417,1.14689167 C18.6034917,0.953983333 19.4681667,0.623875 19.5564833,0.025375 C18.7615167,0.1358 17.9782167,0.505341667 17.3761583,1.06090833 C17.5935083,0.819175 17.7597,0.533283333 17.78875,0.22995 C15.66775,1.580425 14.4323083,4.31625833 13.4281583,6.963775 C12.639025,6.199025 11.942875,5.59935833 11.3164333,5.26925 C9.5592,4.32086667 7.45908333,3.34115833 4.156075,2.11505 C4.05959167,3.20518333 4.69764167,4.65914167 6.54791667,5.626075 C6.14349167,5.571475 5.41706667,5.69234167 4.83134167,5.82948333 C5.06613333,7.08236667 5.84476667,8.10623333 7.95305,8.60714167 C6.98728333,8.674575 6.49448333,8.89186667 6.0424,9.360225 C6.48054167,10.2307333 7.54629167,11.2581 9.47671667,11.0454167 C7.33710833,11.970525 8.60504167,13.6836 10.347225,13.4198167 C7.37881667,16.49025 2.69284167,16.2694583 0,13.6917083 C7.02438333,23.270625 22.2853167,19.3562833 24.5667333,10.136525 C26.2647,10.1563 27.2700167,9.54613333 27.8929583,8.8802 C26.912025,9.04633333 25.4918417,8.87664167 24.732925,8.56403333 L24.732925,8.56403333 Z" transform="translate(21 25.375)" stroke="none" class="main-fill"></path>
  </g></g><style>
          .main-fill {fill: #333333;}
          .main-stroke {stroke: #333333;}
          .secondary-fill {fill: #FFFFFF;}
          .secondary-stroke {stroke: #FFFFFF;}

          .main-fill--darken {fill: #0d0d0d;}
          .main-stroke--darken {stroke: #0d0d0d;}
          .secondary-fill--darken {fill: #d9d9d9;}
          .secondary-stroke--darken {stroke: #d9d9d9;}

          .main-fill--darkener {fill: #000000;}
          .main-stroke--darkener {stroke: #000000;}
          .secondary-fill--darkener {fill: #bfbfbf;}
          .secondary-stroke--darkener {stroke: #bfbfbf;}
        </style></svg>