<svg xmlns="http://www.w3.org/2000/svg" width="70" height="70" viewBox="0 0 70 70" style="width: 100%; height: 100%;"><desc>Made with illustrio</desc>
  
<g class="base"><g fill="none" fill-rule="evenodd" stroke="none" class="main-fill">
    
    
  </g><g fill="none" transform="translate(19 20)" stroke="none" class="main-fill">
      <path d="M20.5,7.9 L20.5,7.2 L20.5,0.4 C20.5,0 20.4,0 20.4,0 L12.3,0 L12.3,6.8 C12.3,7.2 12,7.5 11.6,7.5 C11.2,7.5 10.9,7.2 10.9,6.8 L10.9,0 L9.5,0 L9.5,6.8 C9.5,7.2 9.2,7.5 8.8,7.5 C8.4,7.5 8.2,7.2 8.2,6.8 L8.2,0 L7,0 L6.9,0 L6.9,6.8 C6.9,7.2 6.6,7.5 6.2,7.5 C5.8,7.5 5.5,7.2 5.5,6.8 L5.5,0.1 C2.2,0.1 0,1.5 0,4.8 L0,23 C0,26.5 3.4,30 7,30 L25.2,30 C28.3,30 30.1,27.4 30.1,22.9 L30.1,8.2 L30.1,7.9 L20.5,7.9 L20.5,7.9 L20.5,7.9 Z M28.6,16.4 L28.6,23 C28.6,24.7 28.3,28.7 25.1,28.7 L7,28.7 C4.2,28.7 1.4,25.8 1.4,23 L1.4,16.4 L8.2,16.4 C8.3,16.4 8.4,16.4 8.5,16.3 C8.9,19.7 11.8,22.4 15.3,22.4 C18.8,22.4 21.7,19.8 22.1,16.4 L28.6,16.4 L28.6,16.4 Z M20.7,15.5 C20.7,18.5 18.2,21 15.2,21 C12.2,21 9.7,18.5 9.7,15.5 C9.7,14.4 10.1,13.2 10.7,12.3 C11.7,10.9 13.4,10 15.2,10 C17,10 18.6,10.9 19.7,12.3 C20.4,13.3 20.7,14.4 20.7,15.5 L20.7,15.5 Z" fill="none" stroke="none" class="main-fill"></path>
      <path d="M23.7 0L21.8 0C21.8 0 21.8 0 21.8.4L21.8 6.8 30 6.8 30 6.6 30 6.6 30 6.1 30 4.8C30 1.3 27.3 0 23.7 0L23.7 0zM15.2 12.3C14.2 12.3 13.2 12.8 12.6 13.7 12.2 14.3 12 14.9 12 15.6 12 17.4 13.5 18.9 15.3 18.9 17.1 18.9 18.6 17.4 18.6 15.6 18.6 14.9 18.4 14.3 18 13.7 17.3 12.8 16.3 12.3 15.2 12.3L15.2 12.3z" fill="none" stroke="none" class="main-fill"></path>
    </g></g><style>
          .main-fill {fill: #333333;}
          .main-stroke {stroke: #333333;}
          .secondary-fill {fill: #FFFFFF;}
          .secondary-stroke {stroke: #FFFFFF;}

          .main-fill--darken {fill: #0d0d0d;}
          .main-stroke--darken {stroke: #0d0d0d;}
          .secondary-fill--darken {fill: #d9d9d9;}
          .secondary-stroke--darken {stroke: #d9d9d9;}

          .main-fill--darkener {fill: #000000;}
          .main-stroke--darkener {stroke: #000000;}
          .secondary-fill--darkener {fill: #bfbfbf;}
          .secondary-stroke--darkener {stroke: #bfbfbf;}
        </style></svg>