<svg xmlns="http://www.w3.org/2000/svg" width="70" height="70" viewBox="0 0 70 70" style="width: 100%; height: 100%;"><desc>Made with illustrio</desc>
  
<g class="base"><g fill="none" fill-rule="evenodd" stroke="none" class="main-stroke">
    
    
  </g><g fill="none" transform="translate(22.91 17.818)" stroke="none" class="main-stroke">
      <path d="M8.27272727,6.36363636 L15.9090909,6.36363636 C16.261,6.36363636 16.5454545,6.07854545 16.5454545,5.72727273 L16.5454545,0.636363636 C16.5454545,0.285090909 16.261,0 15.9090909,0 L8.27272727,0 C7.92145455,0 7.63636364,0.285090909 7.63636364,0.636363636 L7.63636364,5.72727273 C7.63636364,6.07854545 7.92145455,6.36363636 8.27272727,6.36363636 L8.27272727,6.36363636 Z" fill="none" stroke="none" class="main-stroke"></path>
      <path d="M21,2.54545455 L18.4545455,2.54545455 C18.1026364,2.54545455 17.8181818,2.83054545 17.8181818,3.18181818 L17.8181818,7.63636364 L6.36363636,7.63636364 L6.36363636,3.18181818 C6.36363636,2.83054545 6.07854545,2.54545455 5.72727273,2.54545455 L3.18181818,2.54545455 C1.42736364,2.54545455 0,3.97281818 0,5.72727273 L0,31.1818182 C0,32.9362727 1.42736364,34.3636364 3.18181818,34.3636364 L21,34.3636364 C22.7544545,34.3636364 24.1818182,32.9362727 24.1818182,31.1818182 L24.1818182,5.72727273 C24.1818182,3.97281818 22.7544545,2.54545455 21,2.54545455 L21,2.54545455 Z M15.9090909,28 L8.27272727,28 C7.92145455,28 7.63636364,27.7155455 7.63636364,27.3636364 C7.63636364,27.0117273 7.92145455,26.7272727 8.27272727,26.7272727 L15.9090909,26.7272727 C16.261,26.7272727 16.5454545,27.0117273 16.5454545,27.3636364 C16.5454545,27.7155455 16.261,28 15.9090909,28 L15.9090909,28 Z M18.4545455,24.1818182 L5.72727273,24.1818182 C5.376,24.1818182 5.09090909,23.8973636 5.09090909,23.5454545 C5.09090909,23.1935455 5.376,22.9090909 5.72727273,22.9090909 L18.4545455,22.9090909 C18.8064545,22.9090909 19.0909091,23.1935455 19.0909091,23.5454545 C19.0909091,23.8973636 18.8064545,24.1818182 18.4545455,24.1818182 L18.4545455,24.1818182 Z M18.4545455,20.3636364 L5.72727273,20.3636364 C5.376,20.3636364 5.09090909,20.0791818 5.09090909,19.7272727 C5.09090909,19.3753636 5.376,19.0909091 5.72727273,19.0909091 L18.4545455,19.0909091 C18.8064545,19.0909091 19.0909091,19.3753636 19.0909091,19.7272727 C19.0909091,20.0791818 18.8064545,20.3636364 18.4545455,20.3636364 L18.4545455,20.3636364 Z M18.4545455,16.5454545 L5.72727273,16.5454545 C5.376,16.5454545 5.09090909,16.2603636 5.09090909,15.9090909 C5.09090909,15.5578182 5.376,15.2727273 5.72727273,15.2727273 L18.4545455,15.2727273 C18.8064545,15.2727273 19.0909091,15.5578182 19.0909091,15.9090909 C19.0909091,16.2603636 18.8064545,16.5454545 18.4545455,16.5454545 L18.4545455,16.5454545 Z M18.4545455,12.7272727 L5.72727273,12.7272727 C5.376,12.7272727 5.09090909,12.4421818 5.09090909,12.0909091 C5.09090909,11.7396364 5.376,11.4545455 5.72727273,11.4545455 L18.4545455,11.4545455 C18.8064545,11.4545455 19.0909091,11.7396364 19.0909091,12.0909091 C19.0909091,12.4421818 18.8064545,12.7272727 18.4545455,12.7272727 L18.4545455,12.7272727 Z" fill="none" stroke="none" class="main-stroke"></path>
    </g></g><style>
          .main-fill {fill: #BEA2A1;}
          .main-stroke {stroke: #BEA2A1;}
          .secondary-fill {fill: #ffffff;}
          .secondary-stroke {stroke: #ffffff;}

          .main-fill--darken {fill: #9f7574;}
          .main-stroke--darken {stroke: #9f7574;}
          .secondary-fill--darken {fill: #d9d9d9;}
          .secondary-stroke--darken {stroke: #d9d9d9;}

          .main-fill--darkener {fill: #845d5b;}
          .main-stroke--darkener {stroke: #845d5b;}
          .secondary-fill--darkener {fill: #bfbfbf;}
          .secondary-stroke--darkener {stroke: #bfbfbf;}
        </style></svg>