<svg xmlns="http://www.w3.org/2000/svg" width="70" height="70" viewBox="0 0 70 70" style="width: 100%; height: 100%;"><desc>Made with illustrio</desc>
  
<g class="base"><g fill="none" fill-rule="evenodd" stroke="none" class="main-stroke">
    
    <path fill="none" d="M12.6583333,29.75 C14.2945833,29.75 15.6333333,28.41125 15.6333333,26.775 L9.68333333,26.775 C9.68333333,28.41125 11.0220833,29.75 12.6583333,29.75 L12.6583333,29.75 Z M22.3270833,20.825 L22.3270833,12.64375 C22.3270833,8.0325 19.2033333,4.31375 14.8895833,3.2725 L14.8895833,2.23125 C14.8895833,1.04125 13.8483333,0 12.6583333,0 C11.4683333,0 10.4270833,1.04125 10.4270833,2.23125 L10.4270833,3.2725 C6.11333333,4.31375 2.98958333,8.0325 2.98958333,12.64375 L2.98958333,20.825 L0.0145833333,23.8 L0.0145833333,25.2875 L25.3020833,25.2875 L25.3020833,23.8 L22.3270833,20.825 L22.3270833,20.825 Z" transform="translate(22.342 20.125)" stroke="none" class="main-stroke"></path>
  </g></g><style>
          .main-fill {fill: #BEA2A1;}
          .main-stroke {stroke: #BEA2A1;}
          .secondary-fill {fill: #f9fff4;}
          .secondary-stroke {stroke: #f9fff4;}

          .main-fill--darken {fill: #9f7574;}
          .main-stroke--darken {stroke: #9f7574;}
          .secondary-fill--darken {fill: #cfffa7;}
          .secondary-stroke--darken {stroke: #cfffa7;}

          .main-fill--darkener {fill: #845d5b;}
          .main-stroke--darkener {stroke: #845d5b;}
          .secondary-fill--darkener {fill: #b3ff74;}
          .secondary-stroke--darkener {stroke: #b3ff74;}
        </style></svg>