<svg xmlns="http://www.w3.org/2000/svg" width="70" height="70" viewBox="0 0 70 70" style="width: 100%; height: 100%;"><desc>Made with illustrio</desc>
  
<g class="base"><g fill="none" fill-rule="evenodd" stroke="none" class="main-stroke">
    
    
  </g><g fill="none" transform="translate(20 19)" stroke="none" class="main-stroke">
      <path d="M23,16.5 C21.2,16.5 19.6,17.2 18.4,18.3 C17.5,18 16.3,17.7 16.3,17.6 L16.3,16.4 C17.6,15.4 18.1,13.6 18.3,13.1 C18.8,12.7 20.1,11.5 20.1,9.8 C20.1,9 19.9,8.4 19.4,8.1 C19.3,8.1 19.1,8 19,8 C19.1,6.7 19.2,4 17.6,2.1 C16.5,0.8 14.9,0.1 12.8,0.1 L11.9,0.1 C9.8,0.1 8.2,0.8 7.1,2.1 C5.6,3.9 5.6,6.6 5.7,7.9 C5.6,7.9 5.4,8 5.3,8.1 C4.9,8.4 4.6,9 4.6,9.8 C4.6,11.4 5.9,12.7 6.4,13.1 C6.6,13.7 7.2,15.5 8.7,16.5 L8.7,17.8 C7.4,18.2 3.2,19.6 1.5,20.6 C1.4,20.7 1.3,20.8 1.2,20.9 C1.1,21.1 -0.2,24.6 0.4,27.2 C0.5,27.5 0.7,27.6 1,27.6 L17.5,27.6 L17.8,27.6 C19,29 20.8,30 22.9,30 C26.6,30 29.6,27 29.6,23.3 C29.6,19.6 26.7,16.5 23,16.5 L23,16.5 Z M9.6,18.8 C9.9,18.7 10,18.5 10,18.2 L10,16.1 C10,15.9 9.9,15.7 9.7,15.5 C8.1,14.6 7.6,12.5 7.6,12.5 C7.6,12.3 7.5,12.2 7.3,12.1 C7.3,12.1 5.8,11 5.8,9.7 C5.8,9.3 5.9,9.1 5.9,9.1 L6.1,9.1 C6.3,9.2 6.6,9.1 6.7,9 C7,8.9 7.1,8.7 7.1,8.4 C7.1,8.4 6.4,4.8 8.1,2.8 C8.9,1.8 10.2,1.2 11.9,1.2 L12.8,1.2 C14.5,1.2 15.8,1.8 16.6,2.8 C18.3,4.8 17.6,8.3 17.6,8.4 C17.6,8.6 17.6,8.8 17.8,9 C18,9.1 18.2,9.2 18.4,9.2 L18.6,9.2 C18.7,9.3 18.8,9.5 18.8,9.9 C18.8,11.2 17.4,12.3 17.3,12.3 C17.2,12.4 17.1,12.5 17.1,12.6 C16.9,13.2 16.1,15 15.2,15.8 C15.1,15.8 15,16 15,16.2 L15,18.2 C15,18.5 15.2,18.8 15.5,18.8 C15.5,18.8 16,18.9 16.8,19.2 C15.2,20.8 13.5,21.5 11.8,21.5 C9.8,21.4 8.3,20.3 7.5,19.6 C8.6,19.1 9.5,18.8 9.6,18.8 L9.6,18.8 Z M23,28.8 C20,28.8 17.5,26.3 17.5,23.3 C17.5,20.3 20,17.8 23,17.8 C26,17.8 28.5,20.3 28.5,23.3 C28.4,26.3 26,28.8 23,28.8 L23,28.8 Z" fill="none" stroke="none" class="main-stroke"></path>
      <path d="M22.9,19.7 C20.9,19.7 19.3,21.3 19.3,23.3 C19.3,25.3 20.9,26.9 22.9,26.9 C24.9,26.9 26.5,25.3 26.5,23.3 C26.5,21.3 24.9,19.7 22.9,19.7 L22.9,19.7 Z M22.9,20.9 C23.3,20.9 23.7,21 24,21.2 L21,24.5 C20.8,24.1 20.6,23.7 20.6,23.2 C20.6,22 21.6,20.9 22.9,20.9 L22.9,20.9 Z M22.9,25.6 C22.5,25.6 22.2,25.5 21.9,25.4 L24.9,22.2 C25.1,22.5 25.2,22.9 25.2,23.3 C25.3,24.5 24.2,25.6 22.9,25.6 L22.9,25.6 Z" fill="none" stroke="none" class="main-stroke"></path>
    </g></g><style>
          .main-fill {fill: #BEA2A1;}
          .main-stroke {stroke: #BEA2A1;}
          .secondary-fill {fill: #f9fff4;}
          .secondary-stroke {stroke: #f9fff4;}

          .main-fill--darken {fill: #9f7574;}
          .main-stroke--darken {stroke: #9f7574;}
          .secondary-fill--darken {fill: #cfffa7;}
          .secondary-stroke--darken {stroke: #cfffa7;}

          .main-fill--darkener {fill: #845d5b;}
          .main-stroke--darkener {stroke: #845d5b;}
          .secondary-fill--darkener {fill: #b3ff74;}
          .secondary-stroke--darkener {stroke: #b3ff74;}
        </style></svg>