<svg xmlns="http://www.w3.org/2000/svg" width="70" height="70" viewBox="0 0 70 70" style="width: 100%; height: 100%;"><desc>Made with illustrio</desc>
  
<g class="base"><g fill="none" fill-rule="evenodd" stroke="none" class="main-stroke">
    
    
    <path fill="none" d="M11.9411765,0.149132941 C8.07812353,0.149132941 4.94117647,3.27723529 4.94117647,7.13626529 L4.94117647,7.97266235 L2.05882353,7.97266235 L0,31.4432506 L15.3253676,31.4432506 C15.0060853,30.5409168 14.8235294,29.5726035 14.8235294,28.5608976 C14.8235294,23.9828717 18.3772561,20.2418395 22.8786765,19.9395741 L21.8235294,7.97266235 L18.9411765,7.97266235 L18.9411765,7.13626529 C18.9411765,3.27723529 15.8042298,0.149132941 11.9411765,0.149132941 Z M11.9411765,1.79619176 C14.9216534,1.79619176 17.2941176,4.16262 17.2941176,7.13626529 L17.2941176,7.97266235 L6.58823529,7.97266235 L6.58823529,7.13626529 C6.58823529,4.16262 8.9607,1.79619176 11.9411765,1.79619176 Z M5.76470588,10.8936182 C6.67435135,10.8936182 7.41176471,11.6169744 7.41176471,12.5020741 C7.41176471,13.3871739 6.67435135,14.11053 5.76470588,14.11053 C4.85506041,14.11053 4.11764706,13.3871739 4.11764706,12.5020741 C4.11764706,11.6169744 4.85506041,10.8936182 5.76470588,10.8936182 Z M18.1176471,10.8936182 C19.0272925,10.8936182 19.7647059,11.6169744 19.7647059,12.5020741 C19.7647059,13.3871739 19.0272925,14.11053 18.1176471,14.11053 C17.2080016,14.11053 16.4705882,13.3871739 16.4705882,12.5020741 C16.4705882,11.6169744 17.2080016,10.8936182 18.1176471,10.8936182 Z M23.4705882,21.5608976 C19.6045949,21.5608976 16.4705882,24.6949043 16.4705882,28.5608976 C16.4705882,32.426891 19.6045949,35.5608976 23.4705882,35.5608976 C27.3365816,35.5608976 30.4705882,32.426891 30.4705882,28.5608976 C30.4705882,24.6949043 27.3365816,21.5608976 23.4705882,21.5608976 Z M26.3272059,25.6528094 C26.6746047,25.6329261 26.9970171,25.8335138 27.1326933,26.1539405 C27.2683694,26.4743672 27.1880321,26.8454885 26.9319853,27.0811182 L22.8143382,31.1987653 C22.4934761,31.5159813 21.9771121,31.5159813 21.65625,31.1987653 L20.0091912,29.5517065 C19.7931868,29.34628 19.7050408,29.0401708 19.7787177,28.7513289 C19.8523946,28.462487 20.0763939,28.2359988 20.3644041,28.1591349 C20.6524143,28.0822709 20.9594788,28.1670292 21.1672794,28.3807506 L22.2352941,29.4487653 L25.7738971,25.9101624 C25.9009553,25.7779376 26.068507,25.6918975 26.25,25.6656771 C26.2755168,25.6601667 26.3012812,25.6558727 26.3272059,25.6528094 Z" transform="translate(19.765 17.145)" stroke="none" class="main-stroke"></path>
  </g></g><style>
          .main-fill {fill: #BEA2A1;}
          .main-stroke {stroke: #BEA2A1;}
          .secondary-fill {fill: #f9ffff;}
          .secondary-stroke {stroke: #f9ffff;}

          .main-fill--darken {fill: #9f7574;}
          .main-stroke--darken {stroke: #9f7574;}
          .secondary-fill--darken {fill: #acffff;}
          .secondary-stroke--darken {stroke: #acffff;}

          .main-fill--darkener {fill: #845d5b;}
          .main-stroke--darkener {stroke: #845d5b;}
          .secondary-fill--darkener {fill: #79ffff;}
          .secondary-stroke--darkener {stroke: #79ffff;}
        </style></svg>