<svg xmlns="http://www.w3.org/2000/svg" width="70" height="70" viewBox="0 0 70 70" style="width: 100%; height: 100%;"><desc>Made with illustrio</desc>
  
<g class="base"><g fill="none" fill-rule="evenodd" stroke="none" class="main-stroke">
    
    
  </g><g fill="none" transform="translate(19 22)" stroke="none" class="main-stroke">
      <path d="M8.1 20.9C8 21 7.9 21.2 7.9 21.4 7.9 21.6 8 21.8 8.1 21.9 8.2 22 8.4 22.1 8.6 22.1 8.8 22.1 9 22 9.1 21.9 9.2 21.8 9.3 21.6 9.3 21.4 9.3 21.2 9.2 21 9.1 20.9 8.8 20.6 8.3 20.6 8.1 20.9L8.1 20.9zM22.4 21.9C22.5 22 22.7 22.1 22.9 22.1 23.1 22.1 23.3 22 23.4 21.9 23.5 21.8 23.6 21.6 23.6 21.4 23.6 21.2 23.5 21 23.4 20.9 23.1 20.6 22.7 20.6 22.4 20.9 22.3 21 22.2 21.2 22.2 21.4 22.2 21.6 22.2 21.8 22.4 21.9L22.4 21.9zM11 5.9C11.1 5.6 11 5.3 10.8 5.1L9.4 4C9.1 3.7 8.6 3.8 8.4 4.1 8.2 4.3 8.2 4.7 8.4 5L4.3 5C3.9 5 3.6 5.3 3.6 5.7 3.6 6.1 3.9 6.4 4.3 6.4L10.3 6.4C10.6 6.4 10.9 6.2 11 5.9L11 5.9zM11.4 7.8L5.2 7.8C4.9 7.8 4.6 8 4.5 8.3 4.4 8.6 4.5 8.9 4.7 9.1L6.2 10.3C6.3 10.4 6.5 10.5 6.6 10.5 6.8 10.5 7 10.4 7.2 10.2 7.4 9.9 7.4 9.6 7.2 9.3L11.4 9.3C11.8 9.3 12.1 9 12.1 8.6 12.1 8.2 11.8 7.8 11.4 7.8L11.4 7.8z" fill="none" stroke="none" class="main-stroke"></path>
      <path d="M0.7,22.1 L4.1,22.1 C4.5,23.9 6.1,25.3 8,25.3 C9.9,25.3 11.5,23.9 11.9,22.1 L18.5,22.1 C18.9,23.8 20.4,25.1 22.3,25.1 C24.1,25.1 25.7,23.8 26.1,22.1 L29.4,22.1 C29.8,22.1 30.1,21.8 30.1,21.4 L30.1,17.9 C30.1,17.4 30,16.9 29.9,16.5 L25.8,16.5 C25.4,16.5 25.1,16.2 25.1,15.8 C25.1,15.4 25.4,15.1 25.8,15.1 L29.5,15.1 C28.6,13 26.7,11.4 24.4,11 L24.4,9 C24.4,6.1 21.9,3.7 18.9,3.7 L15.8,3.7 L15.8,1.4 C15.8,1 15.5,0.7 15.1,0.7 L0.7,0.7 C0.3,0.7 0,1 0,1.4 L0,11.4 L0,12.1 L0,21.4 C0,21.8 0.3,22.1 0.7,22.1 L0.7,22.1 Z M18.6,16.4 L17.2,16.4 C16.8,16.4 16.5,16.1 16.5,15.7 C16.5,15.3 16.8,15 17.2,15 L18.6,15 C19,15 19.3,15.3 19.3,15.7 C19.3,16.1 19,16.4 18.6,16.4 L18.6,16.4 Z M24.7,21.3 C24.7,22.6 23.6,23.7 22.3,23.7 C21,23.7 19.9,22.6 19.9,21.3 C19.9,20 21,18.9 22.3,18.9 C23.6,18.8 24.7,19.9 24.7,21.3 L24.7,21.3 Z M15.7,5 L18.8,5 C21,5 22.9,6.8 22.9,8.9 L22.9,10.7 L15.8,10.7 L15.8,5 L15.7,5 Z M8,23.9 C6.6,23.9 5.5,22.8 5.5,21.4 C5.5,20 6.6,18.9 8,18.9 C9.4,18.9 10.5,20 10.5,21.4 C10.5,22.8 9.4,23.9 8,23.9 L8,23.9 Z M1.4,2.1 L14.3,2.1 L14.3,4.2 L14.3,10.6 L1.4,10.6 L1.4,2.1 L1.4,2.1 Z" fill="none" stroke="none" class="main-stroke"></path>
    </g></g><style>
          .main-fill {fill: #BEA2A1;}
          .main-stroke {stroke: #BEA2A1;}
          .secondary-fill {fill: #f9ffff;}
          .secondary-stroke {stroke: #f9ffff;}

          .main-fill--darken {fill: #9f7574;}
          .main-stroke--darken {stroke: #9f7574;}
          .secondary-fill--darken {fill: #acffff;}
          .secondary-stroke--darken {stroke: #acffff;}

          .main-fill--darkener {fill: #845d5b;}
          .main-stroke--darkener {stroke: #845d5b;}
          .secondary-fill--darkener {fill: #79ffff;}
          .secondary-stroke--darkener {stroke: #79ffff;}
        </style></svg>