<svg xmlns="http://www.w3.org/2000/svg" width="70" height="70" viewBox="0 0 70 70" style="width: 100%; height: 100%;"><desc>Made with illustrio</desc>
  
<g class="base"><g fill="none" fill-rule="evenodd" stroke="none" class="main-stroke">
    
    
    <path fill="none" d="M32.5294118,0.149132941 C30.4924641,0.149132941 28.8235294,1.81806471 28.8235294,3.85501529 C28.8235294,4.98774912 29.3398189,6.00389835 30.1488971,6.68589765 L26.4558824,13.8660447 C26.1581164,13.7881261 25.8504668,13.7373682 25.5294118,13.7373682 C24.321374,13.7373682 23.2482625,14.3267579 22.5698529,15.2300153 L14.3345588,11.5756035 C14.3810396,11.3424936 14.4117647,11.1011077 14.4117647,10.8550153 C14.4117647,8.81806882 12.7428301,7.14913294 10.7058824,7.14913294 C8.66893465,7.14913294 7,8.81806882 7,10.8550153 C7,11.9877512 7.51628994,13.0039037 8.32536765,13.6858976 L4.63235294,20.8660447 C4.33467671,20.7882158 4.02693735,20.7373682 3.70588235,20.7373682 C1.66893465,20.7373682 0,22.4063329 0,24.4432506 C0,26.4802094 1.66893465,28.1491329 3.70588235,28.1491329 C5.74283006,28.1491329 7.41176471,26.4802094 7.41176471,24.4432506 C7.41176471,23.3105328 6.89488594,22.2937832 6.08639706,21.6123682 L9.77941176,14.4322212 C10.0771778,14.5101382 10.3848274,14.5608976 10.7058824,14.5608976 C11.9139201,14.5608976 12.9870316,13.9715022 13.6654412,13.0682506 L21.9007353,16.7226624 C21.8542545,16.9557702 21.8235294,17.1971623 21.8235294,17.4432506 C21.8235294,19.4802094 23.4924641,21.1491329 25.5294118,21.1491329 C27.5663595,21.1491329 29.2352941,19.4802094 29.2352941,17.4432506 C29.2352941,16.3105328 28.7190042,15.2943708 27.9099265,14.6123682 L31.6029412,7.43222118 C31.9007072,7.510139 32.2083568,7.56089765 32.5294118,7.56089765 C34.5663595,7.56089765 36.2352941,5.89196176 36.2352941,3.85501529 C36.2352941,1.81806471 34.5663595,0.149132941 32.5294118,0.149132941 Z" transform="translate(16.882 20.85)" stroke="none" class="main-stroke"></path>
  </g></g><style>
          .main-fill {fill: #BEA2A1;}
          .main-stroke {stroke: #BEA2A1;}
          .secondary-fill {fill: #f9ffff;}
          .secondary-stroke {stroke: #f9ffff;}

          .main-fill--darken {fill: #9f7574;}
          .main-stroke--darken {stroke: #9f7574;}
          .secondary-fill--darken {fill: #acffff;}
          .secondary-stroke--darken {stroke: #acffff;}

          .main-fill--darkener {fill: #845d5b;}
          .main-stroke--darkener {stroke: #845d5b;}
          .secondary-fill--darkener {fill: #79ffff;}
          .secondary-stroke--darkener {stroke: #79ffff;}
        </style></svg>