<svg xmlns="http://www.w3.org/2000/svg" width="70" height="70" viewBox="0 0 70 70" style="width: 100%; height: 100%;"><desc>Made with illustrio</desc>
  
<g class="base"><g fill="none" fill-rule="evenodd" stroke="none" class="main-fill">
    
    <path fill="none" d="M18.4710909,29.6653636 L14.9462727,22.7722727 C14.8043636,22.4948182 14.4849091,22.3605455 14.1870909,22.4553636 L11.7612727,23.226 C11.6499091,23.2616364 11.5410909,23.2794545 11.4373636,23.2794545 C9.77454545,23.2794545 8.30581818,18.6524545 7.82281818,17.1321818 C7.09418182,14.8380909 6.73018182,13.2083636 6.67736364,12.005 C6.59718182,10.1773636 7.27045455,9.96354545 7.52436364,9.88336364 L9.95018182,9.11272727 C10.2467273,9.01854545 10.4312727,8.72390909 10.3873636,8.41590909 L9.28963636,0.752818182 C9.26290909,0.567636364 9.15663636,0.403454545 8.99818182,0.303545455 C8.83909091,0.204272727 8.645,0.178818182 8.46745455,0.236090909 L6.041,1.00672727 C3.54836364,1.79836364 1.74490909,4.15545455 0.962818182,7.644 C0.207454545,11.011 0.49,15.0646364 1.75827273,19.0590909 C4.06827273,26.3333636 9.15090909,31.6126364 13.8440909,31.6126364 C14.4709091,31.6126364 15.0856364,31.5184545 15.6710909,31.3326364 L18.0969091,30.5626364 C18.2750909,30.506 18.4195455,30.3736364 18.4914545,30.2011818 C18.564,30.0280909 18.5563636,29.8320909 18.4710909,29.6653636 L18.4710909,29.6653636 Z" transform="translate(25.455 19.09)" stroke="none" class="main-fill"></path>
  </g></g><style>
          .main-fill {fill: #BEA2A1;}
          .main-stroke {stroke: #BEA2A1;}
          .secondary-fill {fill: #f9ffff;}
          .secondary-stroke {stroke: #f9ffff;}

          .main-fill--darken {fill: #9f7574;}
          .main-stroke--darken {stroke: #9f7574;}
          .secondary-fill--darken {fill: #acffff;}
          .secondary-stroke--darken {stroke: #acffff;}

          .main-fill--darkener {fill: #845d5b;}
          .main-stroke--darkener {stroke: #845d5b;}
          .secondary-fill--darkener {fill: #79ffff;}
          .secondary-stroke--darkener {stroke: #79ffff;}
        </style></svg>